<svg xmlns="http://www.w3.org/2000/svg" viewBox="0 0 35.25 23.44"><defs><style>.\39 291a358-f7f8-4b18-9804-8c59d307dc50{fill:#54b849;}.\39 09871b5-e3dc-49fb-97bd-2665bd850912{fill:#54b948;}</style></defs><title>icon.mkt.Asset 13</title><g id="abdf8a0f-2db4-44be-a296-c78b10ceb815" data-name="Layer 2"><g id="73fa21a9-fe35-49c7-8706-f67d8682a00b" data-name="Layer 1"><path class="9291a358-f7f8-4b18-9804-8c59d307dc50" d="M29,20.55H7.12A1.12,1.12,0,0,1,6,19.43V7.21A1.12,1.12,0,0,1,7.12,6.09h27a1.12,1.12,0,0,1,1.12,1.12V19.43a.63.63,0,1,1-1.25,0V7.34H7.25v12H29a.63.63,0,1,1,0,1.25Z"/><path class="9291a358-f7f8-4b18-9804-8c59d307dc50" d="M20.63,17.56c-2,0-3.56-1.9-3.56-4.24s1.6-4.24,3.56-4.24,3.56,1.9,3.56,4.24S22.59,17.56,20.63,17.56Zm0-7.23c-1.27,0-2.31,1.34-2.31,3s1,3,2.31,3,2.31-1.34,2.31-3S21.9,10.33,20.63,10.33Z"/><path class="9291a358-f7f8-4b18-9804-8c59d307dc50" d="M11.83,20.43a.63.63,0,0,1-.62-.62,3.32,3.32,0,0,0-1-2.57,5.11,5.11,0,0,0-3.44-1A.62.62,0,0,1,6.66,15a6.31,6.31,0,0,1,4.4,1.31,4.51,4.51,0,0,1,1.39,3.5A.63.63,0,0,1,11.83,20.43Z"/><path class="9291a358-f7f8-4b18-9804-8c59d307dc50" d="M34.23,11.67a6,6,0,0,1-3.95-1.33,4.51,4.51,0,0,1-1.39-3.5.63.63,0,0,1,1.25,0,3.32,3.32,0,0,0,1,2.57,5.13,5.13,0,0,0,3.45,1,.62.62,0,0,1,.12,1.24S34.49,11.67,34.23,11.67Z"/><path class="9291a358-f7f8-4b18-9804-8c59d307dc50" d="M7.12,11.79c-.26,0-.43,0-.46,0a.62.62,0,0,1,.12-1.24,5.14,5.14,0,0,0,3.45-1A3.32,3.32,0,0,0,11.2,7a.63.63,0,1,1,1.25,0,4.51,4.51,0,0,1-1.39,3.5A6,6,0,0,1,7.12,11.79Z"/><path class="9291a358-f7f8-4b18-9804-8c59d307dc50" d="M3.53,18a.63.63,0,0,1-.62-.62V4.55A1.74,1.74,0,0,1,4.65,2.81H30.89a.62.62,0,0,1,0,1.25H4.65a.49.49,0,0,0-.49.49V17.42A.63.63,0,0,1,3.53,18Z"/><path class="9291a358-f7f8-4b18-9804-8c59d307dc50" d="M.63,15.23A.63.63,0,0,1,0,14.61V1.74A1.74,1.74,0,0,1,1.74,0H28a.63.63,0,0,1,0,1.25H1.74a.49.49,0,0,0-.49.49V14.61A.63.63,0,0,1,.63,15.23Z"/><path class="909871b5-e3dc-49fb-97bd-2665bd850912" d="M30.88,19.87l-3-3.44,0,0H26.28a.06.06,0,0,0-.06,0,.06.06,0,0,0,0,.07l3,3.38-3.06,3.45a.05.05,0,0,0,0,.06.06.06,0,0,0,.06,0h1.59a.05.05,0,0,0,0,0l3-3.47A.06.06,0,0,0,30.88,19.87Z"/></g></g></svg>