<?xml version="1.0" encoding="utf-8"?>
<!-- Generator: Adobe Illustrator 15.0.0, SVG Export Plug-In . SVG Version: 6.00 Build 0)  -->
<!DOCTYPE svg PUBLIC "-//W3C//DTD SVG 1.1//EN" "http://www.w3.org/Graphics/SVG/1.1/DTD/svg11.dtd">
<svg version="1.1" id="Layer_1" xmlns="http://www.w3.org/2000/svg" xmlns:xlink="http://www.w3.org/1999/xlink" x="0px" y="0px"
	 width="148.904px" height="32.326px" viewBox="0 0 148.904 32.326" enable-background="new 0 0 148.904 32.326"
	 xml:space="preserve">
<g>
	<path fill="#9B9B9B" d="M3.094,3.217h9.527c1.688,0,3.202,0.319,4.544,0.958s2.484,1.512,3.428,2.619s1.667,2.402,2.171,3.885
		s0.756,3.067,0.756,4.755c0,1.758-0.264,3.387-0.791,4.887s-1.271,2.801-2.232,3.902s-2.109,1.963-3.445,2.584
		s-2.812,0.932-4.43,0.932H3.094V3.217z M7.242,24.188h4.395c1.113,0,2.145-0.19,3.094-0.571s1.767-0.94,2.452-1.679
		s1.222-1.649,1.608-2.733s0.58-2.329,0.58-3.735c0-1.512-0.196-2.818-0.589-3.92s-0.932-2.01-1.617-2.725s-1.503-1.245-2.452-1.591
		s-1.975-0.519-3.076-0.519H7.242V24.188z"/>
	<path fill="#9B9B9B" d="M27.229,9.844h3.076l0.686,2.197c0.539-0.844,1.099-1.479,1.679-1.907s1.216-0.642,1.907-0.642
		c0.211,0,0.551,0.044,1.02,0.132s1.031,0.313,1.688,0.677v3.586c-0.434-0.164-0.806-0.293-1.116-0.387s-0.568-0.161-0.773-0.202
		s-0.363-0.064-0.475-0.07s-0.19-0.009-0.237-0.009c-0.516,0-0.979,0.108-1.389,0.325s-0.756,0.504-1.037,0.861
		s-0.498,0.771-0.65,1.239s-0.229,0.955-0.229,1.459v10.635h-4.148V9.844z"/>
	<path fill="#9B9B9B" d="M55.125,27.264c-0.34,0.211-0.639,0.372-0.896,0.483s-0.489,0.193-0.694,0.246s-0.381,0.082-0.527,0.088
		s-0.272,0.009-0.378,0.009c-0.422,0-0.806-0.076-1.151-0.229s-0.65-0.354-0.914-0.606s-0.492-0.545-0.686-0.879
		s-0.354-0.688-0.483-1.063c-0.527,0.551-1.025,1.005-1.494,1.362s-0.932,0.642-1.389,0.853s-0.914,0.357-1.371,0.439
		s-0.932,0.123-1.424,0.123c-0.809,0-1.562-0.126-2.259-0.378s-1.304-0.609-1.819-1.072s-0.92-1.022-1.213-1.679
		s-0.439-1.383-0.439-2.18c0-0.691,0.155-1.289,0.466-1.793s0.721-0.943,1.23-1.318s1.09-0.697,1.74-0.967s1.312-0.513,1.986-0.729
		s1.336-0.425,1.986-0.624s1.23-0.41,1.74-0.633s0.92-0.472,1.23-0.747s0.466-0.606,0.466-0.993c0-0.375-0.097-0.688-0.29-0.94
		s-0.439-0.457-0.738-0.615s-0.633-0.272-1.002-0.343s-0.729-0.105-1.081-0.105s-0.703,0.05-1.055,0.149s-0.671,0.255-0.958,0.466
		s-0.53,0.483-0.729,0.817s-0.328,0.729-0.387,1.187h-4.201c0.07-1.031,0.325-1.931,0.765-2.698s0.999-1.403,1.679-1.907
		s1.444-0.879,2.294-1.125s1.714-0.369,2.593-0.369c0.961,0,1.878,0.105,2.751,0.316s1.644,0.545,2.312,1.002s1.201,1.04,1.6,1.749
		s0.598,1.562,0.598,2.558v8.684c0,0.234,0.076,0.448,0.229,0.642s0.369,0.29,0.65,0.29c0.035,0,0.164-0.015,0.387-0.044
		s0.516-0.144,0.879-0.343V27.264z M48.832,19.16c-0.27,0.164-0.621,0.311-1.055,0.439s-0.902,0.261-1.406,0.396
		s-1.011,0.278-1.521,0.431s-0.97,0.331-1.38,0.536s-0.747,0.445-1.011,0.721s-0.396,0.601-0.396,0.976
		c0,0.363,0.059,0.674,0.176,0.932s0.272,0.469,0.466,0.633s0.413,0.284,0.659,0.36s0.492,0.114,0.738,0.114
		c0.809,0,1.632-0.272,2.47-0.817s1.591-1.368,2.259-2.47V19.16z"/>
	<path fill="#9B9B9B" d="M58.729,9.844V6.416c0-0.562,0.114-1.078,0.343-1.547s0.548-0.876,0.958-1.222s0.896-0.612,1.459-0.8
		s1.184-0.281,1.863-0.281c0.188,0,0.404,0.009,0.65,0.026s0.524,0.056,0.835,0.114s0.665,0.149,1.063,0.272
		s0.855,0.296,1.371,0.519v3.234c-0.516-0.176-0.961-0.313-1.336-0.413s-0.691-0.173-0.949-0.22s-0.454-0.073-0.589-0.079
		s-0.214-0.009-0.237-0.009c-0.152,0-0.305,0.026-0.457,0.079s-0.29,0.132-0.413,0.237s-0.223,0.234-0.299,0.387
		s-0.114,0.334-0.114,0.545v2.584h3.27v3.445h-3.27v14.449h-4.148V13.289h-2.812V9.844H58.729z"/>
	<path fill="#9B9B9B" d="M73.354,4.922v4.922h3.287v3.393h-3.287v9.738c0,0.492,0.114,0.902,0.343,1.23s0.548,0.492,0.958,0.492
		c0.129,0,0.387-0.021,0.773-0.062s0.92-0.196,1.6-0.466v3.27c-0.727,0.281-1.415,0.46-2.065,0.536s-1.187,0.114-1.608,0.114
		c-0.551,0-1.078-0.111-1.582-0.334s-0.946-0.536-1.327-0.94s-0.683-0.894-0.905-1.468s-0.334-1.213-0.334-1.916V13.236h-2.549
		V9.844h2.549V4.922H73.354z"/>
	<path fill="#FFFFFF" d="M83.057,0v32.326h-3.621V0H83.057z"/>
	<path fill="#199FE0" d="M92.32,3.217v10.107h11.092V3.217h4.148v24.521h-4.148V16.77H92.32v10.969h-4.148V3.217H92.32z"/>
	<path fill="#199FE0" d="M127.863,27.738h-4.148v-2.021c-0.445,0.457-0.879,0.838-1.301,1.143s-0.838,0.548-1.248,0.729
		s-0.826,0.311-1.248,0.387s-0.855,0.114-1.301,0.114c-0.902,0-1.708-0.135-2.417-0.404s-1.315-0.653-1.819-1.151
		s-0.888-1.096-1.151-1.793s-0.396-1.479-0.396-2.347V9.844h4.148v12.252c0,0.457,0.062,0.847,0.185,1.169s0.293,0.583,0.51,0.782
		s0.472,0.343,0.765,0.431s0.609,0.132,0.949,0.132c0.539,0,1.069-0.126,1.591-0.378s0.984-0.595,1.389-1.028
		s0.729-0.932,0.976-1.494s0.369-1.16,0.369-1.793V9.844h4.148V27.738z"/>
	<path fill="#199FE0" d="M132.1,3.234h4.148v8.824c0.258-0.41,0.562-0.776,0.914-1.099s0.724-0.592,1.116-0.809
		s0.8-0.381,1.222-0.492s0.838-0.167,1.248-0.167c1.16,0,2.183,0.246,3.067,0.738s1.626,1.163,2.224,2.013s1.046,1.843,1.345,2.979
		s0.448,2.344,0.448,3.621c0,1.289-0.17,2.496-0.51,3.621s-0.829,2.104-1.468,2.936s-1.415,1.488-2.329,1.969
		s-1.945,0.721-3.094,0.721c-0.34,0-0.7-0.041-1.081-0.123s-0.756-0.214-1.125-0.396s-0.724-0.422-1.063-0.721
		s-0.645-0.659-0.914-1.081v1.969H132.1V3.234z M136.248,18.844c0,0.809,0.082,1.567,0.246,2.276s0.404,1.33,0.721,1.863
		s0.703,0.952,1.16,1.257s0.979,0.457,1.564,0.457c0.598,0,1.131-0.152,1.6-0.457s0.861-0.724,1.178-1.257s0.557-1.154,0.721-1.863
		s0.246-1.468,0.246-2.276s-0.082-1.567-0.246-2.276s-0.404-1.327-0.721-1.854s-0.709-0.946-1.178-1.257s-1.002-0.466-1.6-0.466
		c-0.574,0-1.084,0.146-1.529,0.439s-0.826,0.694-1.143,1.204s-0.56,1.104-0.729,1.784s-0.267,1.406-0.29,2.18V18.844z"/>
</g>
</svg>
